<svg xmlns:xlink="http://www.w3.org/1999/xlink" xmlns="http://www.w3.org/2000/svg" class="sc-ezbkAF sc-bYoBSM kkODvX" viewBox="0 0 978.5 170.7" width="978.5"  height="170.7" ><title>CVMakerLogo</title><path d="M254.7,36.7h-29.8c-2.8-0.1-5.3,1.6-6.2,4.3l-29.8,92l-29.8-92c-0.7-2.7-3.2-4.4-6-4.3h-30.5
c-1,0-2,0.5-2.5,1.4c-0.7,0.7-0.9,1.7-0.5,2.6l19.1,51.5c-12.9,27-39,45.4-62.6,45.4c-23.8,0.2-37.7-16.8-38-34.3
C37.7,84.2,48.7,66.7,74.7,66c11.2-0.5,23.1,3,32.3,6.6c1,0.5,2.3,0.2,3-0.7c1-0.6,1.5-1.9,1-3.1c-3.5-9-6.7-18-9.9-27.2
c-0.7-1.8-2.1-3.2-4-3.8c-8.6-2.9-17.5-4.3-26.6-4.2C35.7,34.3,0,56.3,0,103.1c0.2,35.7,28.3,67.4,75,67.6c32.3,0,59.8-19.4,76-45.4
l13.4,36.4c1.2,3.3,4.4,5.4,7.9,5.2H205c3.5,0.2,6.7-1.9,7.9-5.2l44.7-121.1c0.2-0.9,0-1.8-0.5-2.6
C256.7,37.2,255.7,36.6,254.7,36.7z M458.5,33.8c-17.4,0-31.5,6.6-40.2,20.1c-7.7-12.8-20.9-20.1-37.7-20.1
c-15.6,0-28.8,6.2-37,18.2V39.7c-0.1-1.7-1.5-3.1-3.2-3.1h-29.5c-1.7,0-3.1,1.3-3.2,3.1v124.4c0.1,1.7,1.5,2.9,3.1,2.8
c0,0,0,0,0.1,0h31.8c1.7,0.1,3.1-1.1,3.2-2.8c0,0,0,0,0-0.1V89.6c0-31,42-31,42,0v74.5c0.1,1.7,1.5,2.9,3.1,2.8c0,0,0.1,0,0.1,0
h31.8c1.5,0.1,2.9-1,3-2.6c0-0.1,0-0.2,0-0.2V89.6c0-30.7,42-31,42,0v74.5c0.1,1.7,1.5,2.9,3.1,2.8c0,0,0.1,0,0.1,0h31.8
c1.7,0.1,3.1-1.1,3.2-2.8c0,0,0-0.1,0-0.1V84.2C505.9,53.4,487,33.8,458.5,33.8z M641.4,140.7h-4.7c-6,0-8.2-2.4-8.2-7.3V86.8
c0-37.4-22.8-53-58.3-53c-14.4,0.1-28.7,2.7-42.2,7.8c-1.2,0.3-2,1.4-2,2.6v24.1c0,1,0.5,1.9,1.2,2.6c0.9,0.6,2,0.6,3,0.2
c12.2-4.5,23.1-6.6,34.5-6.6c18.6,0,27.3,6.9,27.3,22v7.3c-20.6-15.8-76.7-14.9-76.7,34c0,22.7,16.9,42.1,44.7,42.1
c8.9,0,30.3-3.1,36-19.4h1.2c4.2,18.9,31.3,20.3,45.4,14.7c1.2-0.4,2-1.6,2-2.8v-18.9c-0.1-1.7-1.5-2.9-3.2-2.8
C641.5,140.7,641.4,140.7,641.4,140.7z M592,121.1c0,29.1-40.5,26.7-40.5,5.7c0-23.7,32-17,40.5-10.6V121.1z M733.2,90.6l38-49
c0.6-1,0.7-2.2,0.2-3.3c-0.7-1-1.8-1.6-3-1.7h-34c-1,0-2,0.5-2.5,1.4l-40.7,53.2V3.1c-0.1-1.7-1.5-3.1-3.2-3.1h-31.8
c-1.7,0-3.2,1.3-3.2,3.1v161c0.1,1.7,1.5,2.9,3.1,2.8c0,0,0.1,0,0.1,0h31.8c1.7,0.1,3.1-1.1,3.2-2.8c0,0,0-0.1,0-0.1V135l15.6-18.4
l28.5,48.9c0.6,0.9,1.6,1.4,2.7,1.4H773c1.1,0.1,2.2-0.5,2.7-1.4c0.5-1,0.5-2.1,0-3.1L733.2,90.6z M830.5,33.8
c-36.2,0-63.8,30-62.5,69.5c1.2,40.7,29.8,65.3,70.7,66.7c14.4,0.3,28.6-2.6,41.7-8.5c1.1-0.5,1.9-1.6,2-2.8V136
c0-1-0.6-1.9-1.5-2.4c-0.8-0.6-1.8-0.8-2.7-0.5c-13.7,4.7-24.3,6.6-36.7,6.6c-21.1,0-33-13.2-35-29.8h79.4c1.7,0,3.1-1.2,3.2-2.8
C895.6,61.5,868.8,33.8,830.5,33.8z M806.7,85.1c1.7-15.4,12.7-22.9,23.8-22.9c11.2,0.2,22.6,7.8,23.6,22.9H806.7z M975.8,34.3
c-2.4-0.3-4.8-0.5-7.2-0.5c-13.7,0.1-26.2,7.9-32.3,20.1V39.7c-0.1-1.7-1.5-3.1-3.2-3.1H904c-1.7,0-3.1,1.3-3.2,3.1v124.4
c0.1,1.7,1.5,2.9,3.1,2.8c0,0,0,0,0.1,0h31.3c1.7,0.1,3.1-1.1,3.2-2.8c0,0,0-0.1,0-0.1V89.8c0-14.9,6-22.5,20.1-22.5h16.6
c1.7,0,3.2-1.4,3.2-3.1V37.1C978.4,35.6,977.2,34.5,975.8,34.3z" fill="#000000" fill-rule="nonzero"></path></svg>